<svg width="256" height="256" viewBox="0 0 256 256" fill="none" xmlns="http://www.w3.org/2000/svg">
<path d="M48.3846 48.8197C69.4602 27.7801 98.0306 15.9745 127.811 16C157.591 16.0255 186.141 27.88 207.18 48.9557C228.22 70.0313 240.025 98.6017 240 128.382C239.974 158.162 228.12 186.712 207.044 207.751L48.3846 48.8197Z" fill="#C7C3DE"/>
<path d="M207.751 207.044C186.712 228.12 158.162 239.974 128.382 240C98.6017 240.025 70.0313 228.22 48.9557 207.18C27.88 186.141 16.0255 157.591 16 127.811C15.9745 98.0307 27.7801 69.4603 48.8197 48.3846L207.751 207.044Z" fill="#B3AFDE"/>
<path d="M207.751 207.044C175.117 239.679 112.893 230.868 69.0533 187.083C25.2138 143.298 16.1849 81.1283 48.8197 48.3846L207.751 207.044Z" fill="#BFBCE8"/>
<path d="M207.751 207.044C184.146 230.65 129.482 214.278 85.6971 170.439C41.912 126.599 25.4314 71.9905 48.8197 48.3846L207.751 207.044Z" fill="#E5E2FF"/>
<path d="M167.882 167.23C173.638 161.849 178.253 155.366 181.452 148.165C184.651 140.964 186.368 133.194 186.503 125.316C186.637 117.438 185.184 109.613 182.232 102.308C179.28 95.0026 174.889 88.3658 169.319 82.7926C163.75 77.2193 157.116 72.8235 149.812 69.8667C142.509 66.9099 134.685 65.4526 126.807 65.5815C118.929 65.7104 111.157 67.4228 103.955 70.617C96.752 73.8111 90.2655 78.4216 84.8811 84.1741L167.882 167.23Z" fill="#423AC7"/>
<path d="M84.8812 84.1742C73.1326 95.9227 82.4336 123.771 105.387 146.67C128.34 169.569 156.188 178.924 167.882 167.23L84.8812 84.1742Z" fill="#5045DE"/>
</svg>
